<?xml version="1.0" encoding="UTF-8"?>
<!-- Generated by Pixelmator Pro 3.7 -->
<svg width="633" height="610" viewBox="0 0 633 610" xmlns="http://www.w3.org/2000/svg">
    <path id="Path" fill="#458adc" stroke="none" d="M 321.275452 320.466766 C 325.844727 306.575256 332.519623 294.084961 338.978302 281.494598 C 340.65033 278.235199 342.17688 274.900665 343.871002 271.653198 C 350.458588 259.025391 350.566284 246.152832 345.46228 233.047974 C 345.247345 232.496094 345.26709 231.852783 345.130005 230.933716 C 348.093048 230.88501 350.062195 232.632813 352.291809 233.513062 C 360.090332 236.591675 368.203735 238.806396 376.470032 239.396973 C 401.883606 241.212708 419.96283 273.001495 401.721497 299.160645 C 392.606628 312.231934 380.389771 322.492523 369.107849 333.556671 C 352.089233 350.246735 334.890472 366.742523 322.109894 387.126343 C 319.50061 391.288025 317.108185 395.585632 313.81427 399.630249 C 312.917847 372.995453 313.732269 346.629333 321.275452 320.466766 Z"/>
    <path id="path1" fill="#458adc" stroke="none" d="M 550.222656 477.859741 C 560.63385 480.76001 570.682556 480.231384 580.753662 478.199402 C 584.338928 477.476013 587.934753 476.746765 591.559814 476.290649 C 600.256287 475.196411 605.36908 479.710388 605.270569 488.417236 C 605.236816 491.399475 604.593567 494.371277 604.488953 497.356995 C 604.234985 504.602112 604.974304 511.670105 608.861206 518.061462 C 614.109985 526.692322 613.593689 536.22345 613.122498 545.736816 C 613.091064 546.373474 612.843384 547.05304 611.821533 547.14801 C 610.100708 545.863892 610.351135 543.670593 609.876099 541.868225 C 608.627075 537.129089 606.998718 532.484314 603.648865 528.932922 C 597.201294 522.097473 594.574768 514.11377 594.514648 504.852539 C 594.489563 500.990784 594.41156 496.528564 588.685303 493.97699 C 591.808594 499.144287 592.108093 503.917114 592.019775 508.710205 C 591.901184 515.143372 595.036133 520.154114 598.739014 524.967773 C 608.111877 537.152283 608.567627 551.021973 606.311279 565.37616 C 605.888489 568.065735 603.934631 569.995117 602.14093 571.975891 C 606.209595 574.095337 610.059021 573.916626 614.016785 572.78363 C 615.598572 572.330872 617.300964 571.985657 618.925903 572.063416 C 622.169495 572.21875 624.965637 573.608765 625.461426 577.08783 C 625.95752 580.568726 623.362 582.126282 620.430908 582.879944 C 618.351135 583.414734 616.109558 584.102722 614.056946 583.833191 C 600.922485 582.108398 587.754272 583.444702 574.610779 583.112915 C 571.18158 583.026367 567.646301 583.066406 564.450745 579.879028 C 571.509583 575.326843 578.311096 571.559814 586.814941 573.235291 C 588.787659 573.624084 590.737976 574.154907 592.726624 573.525635 C 594.389099 572.999573 595.968628 572.312622 595.203796 570.029114 C 592.797119 562.844177 593.130066 555.239502 591.860962 547.869202 C 590.420837 539.505798 586.289551 533.421753 579.020813 529.28186 C 574.235352 526.556335 569.25885 524.263123 564.149719 522.19873 C 558.452271 519.896667 557.328003 516.13269 560.413879 511.141907 C 561.930481 508.689087 563.685608 507.789124 566.647095 508.717041 C 570.282837 509.856323 574.053162 510.649414 577.818787 511.265808 C 581.237244 511.825439 584.709717 511.328613 586.790588 508.247253 C 588.836975 505.216919 588.502441 501.821045 586.294495 498.90863 C 585.081299 497.308472 584.857971 495.80957 586.080994 493.823486 C 563.009216 495.15625 542.386841 488.953125 522.914612 478.207397 C 513.692322 473.118103 514.611023 470.70929 520.498535 462.154968 C 522.256348 459.601013 523.838989 461.130493 525.421753 462.504578 C 532.754822 468.870728 540.494751 474.591919 550.222656 477.859741 Z"/>
    <path id="path2" fill="#0e3d83" stroke="none" d="M 425.309937 440.692078 C 421.010925 437.795288 416.988281 435.13147 413.032104 432.372437 C 394.466736 419.425415 386.799316 400.688049 383.483704 379.048523 C 381.579529 366.620575 384.350403 354.951141 386.12616 343.03421 C 386.671875 339.372101 386.804565 335.727509 386.701416 332.093384 C 386.56189 327.178589 389.030273 324.027252 392.804626 321.210693 C 395.091553 323.219574 394.266785 325.995148 394.902161 328.248016 C 399.180359 343.417694 406.575317 357.227722 413.251953 371.364075 C 420.862854 387.478699 428.062378 403.789246 430.793762 421.585876 C 431.842834 428.421265 431.888672 435.364685 430.557129 441.880432 C 428.085449 442.664429 426.94751 441.450317 425.309937 440.692078 Z"/>
    <path id="path3" fill="#ff8c01" stroke="none" d="M 378.185181 356.936951 C 373.959076 376.28891 363.735168 392.296448 353.565308 408.345825 C 347.369354 418.123901 339.410461 427.034668 338.029022 439.251404 C 337.915009 440.25946 337.363831 441.350525 336.172852 441.228394 C 333.938568 440.99939 331.416046 440.031067 331.012878 437.927002 C 329.891418 432.073242 325.503784 429.881104 320.878632 427.894226 C 317.852814 426.594299 316.80423 424.528381 316.609009 421.327576 C 316.094299 412.887024 317.965851 404.986206 322.310547 397.90802 C 337.356323 373.395996 356.710693 352.652863 378.824585 334.398346 C 379.582275 333.772888 380.367249 333.064972 381.771667 333.667542 C 381.664795 341.384949 379.853149 348.941742 378.185181 356.936951 Z"/>
    <path id="path4" fill="#fff4d0" stroke="none" d="M 427.647827 560.390503 C 423.263672 557.285034 419.209961 554.31073 413.871155 554.236633 C 412.002136 554.210693 410.882874 552.969116 409.804749 551.658203 C 385.247314 521.799072 352.55072 506.324097 315.595581 498.403137 C 313.807953 498.02002 311.963959 497.921448 309.905182 496.257263 C 313.064117 490.469238 316.233734 484.534912 319.546631 478.681641 C 320.365295 477.235168 322.13623 477.139771 323.602814 477.191833 C 333.569153 477.545654 343.57962 477.223938 353.451874 479.105164 C 364.254211 481.163635 372.086975 487.481445 378.322083 496.194031 C 384.528687 504.866638 389.572876 514.299438 396.021912 522.823486 C 402.811707 531.797913 410.502869 539.75708 419.781128 546.194153 C 423.051392 548.462891 426.190186 551.013428 429.000549 553.823792 C 431.276306 556.099426 433.471375 558.781006 432.365967 562.493103 C 430.092041 563.316772 429.270325 561.403259 427.647827 560.390503 Z"/>
    <path id="path5" fill="#79830c" stroke="none" d="M 250.516663 221.45697 C 241.452667 209.77124 233.981293 197.641968 230.420776 183.45166 C 228.719177 176.669983 229.337006 170.215698 233.217896 164.27478 C 237.879028 157.139404 243.724274 151.158203 250.417114 146.194702 C 252.099396 147.238892 252.070496 148.506042 252.052277 149.615479 C 251.95517 155.534485 254.231476 160.264648 258.841095 163.95752 C 262.157867 166.614685 263.385773 170.411377 264.277466 174.371826 C 265.591766 180.209167 266.802399 186.074951 268.311707 191.862305 C 271.106567 202.578979 276.87439 211.29248 286.189697 217.509644 C 287.4328 218.339294 288.596008 219.299133 289.729645 220.275879 C 290.069458 220.568665 290.183563 221.123413 290.391052 221.538147 C 278.461578 232.974915 261.922699 233.03009 250.516663 221.45697 Z"/>
    <path id="path6" fill="#fff4d0" stroke="none" d="M 18.98912 138.979248 C 31.573822 147.956421 44.213104 156.856201 56.148544 166.708313 C 87.859344 192.884033 119.370193 219.281982 148.386444 248.496338 C 154.621582 254.774048 159.68396 261.90094 164.376801 269.632904 C 160.609802 272.230438 157.645233 271.624878 154.782867 268.83786 C 121.582153 236.51123 85.903519 207.059326 49.582474 178.364014 C 35.09816 166.920776 20.535904 155.556946 3.443268 146.250427 C 7.647385 141.563904 12.246277 139.019287 18.618668 139.01355 C 19.014648 139.001465 18.98912 138.979248 18.98912 138.979248 Z"/>
    <path id="path7" fill="#fc8ea0" stroke="none" d="M 235.556274 208.469604 C 238.936615 214.464905 242.773743 219.666626 247.203583 224.448242 C 248.439911 225.782715 249.562897 227.252075 250.55011 228.780762 C 252.138397 231.240234 253.18692 233.96283 251.607971 236.753235 C 249.892578 239.78479 246.79187 241.358398 243.58429 240.805054 C 230.355957 238.523315 216.818756 233.370117 211.376282 221.494629 C 205.332764 208.307617 197.9664 195.201782 195.11145 180.619141 C 194.234314 176.138794 193.900421 171.407227 196.380219 166.540161 C 201.382141 168.762451 206.72467 168.725098 211.883514 169.729004 C 218.458069 171.008545 222.196014 175.604614 224.208557 181.579468 C 227.287231 190.719543 230.117432 199.937683 235.556274 208.469604 Z"/>
    <path id="path8" fill="#0e3d83" stroke="none" d="M 301.208435 181.753296 C 293.120605 174.591553 283.609833 170.773071 273.781311 167.557251 C 273.623444 167.505554 273.468597 167.444458 273.313202 167.385376 C 259.959503 162.308716 254.452148 153.430786 257.874054 142.497803 C 261.969116 129.414185 274.627045 122.085938 287.574005 125.266968 C 300.423584 128.424072 309.474304 138.135132 307.412476 154.085144 C 306.202789 163.443237 304.573059 172.711548 301.208435 181.753296 Z"/>
    <path id="path9" fill="#fff4d0" stroke="none" d="M 243.920654 269.857666 C 243.990845 269.532806 243.953674 269.11142 244.146576 268.896912 C 256.21463 255.475342 266.271301 240.078369 281.9646 230.210327 C 291.240906 224.377319 300.784149 222.973938 310.665558 228.746948 C 311.811981 229.416748 312.958374 230.108154 314.012695 230.910522 C 321.434662 236.55896 321.313568 238.90918 314.495148 245.060242 C 301.839081 256.477661 286.873444 264.020569 271.750671 271.371429 C 265.628082 274.347504 259.554047 277.423462 253.084656 280.639557 C 249.743927 278.541748 248.971863 273.845367 245.117798 271.029449 C 244.404449 270.3927 244.162567 270.125183 243.920654 269.857666 Z"/>
    <path id="path10" fill="#458adc" stroke="none" d="M 437.905396 538.996765 C 444.631897 541.629578 450.967529 544.233704 456.599304 548.172607 C 462.56073 552.342224 462.736511 556.0177 457.737915 561.176636 C 453.848999 565.190369 449.073853 567.47052 443.692139 568.177429 C 433.327209 569.538818 423.994507 572.466248 417.077393 581.143372 C 414.922058 583.847229 411.621765 585.444336 409.803284 588.907166 C 408.300537 591.768555 404.413147 591.885193 401.230042 592.05658 C 389.553223 592.685608 377.968872 592.020264 365.553528 589.124268 C 368.007935 588.142273 369.745789 587.524658 371.415497 586.758545 C 373.331543 585.879456 375.362732 585.349854 374.342987 582.136963 C 373.639618 579.920593 376.045776 578.368835 377.510437 576.825439 C 379.66864 574.551086 382.482849 573.237 385.487549 573.044922 C 393.302795 572.545349 399.202026 569.098755 404.311279 563.175903 C 409.710083 556.917358 416.733032 557.325562 423.207764 563.702881 C 410.106323 566.435364 403.114441 578.596497 391.18689 582.993042 C 397.306274 584.258789 402.179565 582.986511 406.295288 578.173523 C 410.490723 573.267334 416.197083 570.412842 422.538208 568.906067 C 426.424011 567.982666 430.333618 567.017944 433.79126 564.902954 C 439.397705 561.473694 439.987183 557.400574 435.38092 552.700134 C 430.792847 548.018311 424.973572 544.968628 419.608215 541.317871 C 409.494446 534.436401 403.46228 523.912415 395.416992 515.256714 C 401.335754 509.261536 402.323669 509.300232 406.281494 515.126465 C 414.040405 526.548279 424.453064 534.467529 437.905396 538.996765 Z"/>
    <path id="path11" fill="#fff4d0" stroke="none" d="M 547.971313 498.166382 C 522.36792 493.817139 497.081909 491.757019 471.531128 493.97699 C 463.23645 494.697693 454.999512 495.679321 446.802002 497.087036 C 445.338257 497.33844 443.824402 497.595337 441.841003 496.187805 C 444.07251 490.761597 446.210449 485.035889 445.993164 478.783691 C 445.924805 476.816589 447.864258 476.709412 449.386658 476.723267 C 456.708679 476.789795 463.495239 474.520691 470.137024 471.82489 C 484.686279 465.919739 497.856689 466.750488 510.797729 476.958984 C 523.550415 487.018921 538.026917 494.370117 554.605103 496.248169 C 558.560059 496.696167 562.577209 496.649597 566.567627 496.716675 C 570.667297 496.785522 574.501465 497.755615 577.936523 499.976807 C 579.869141 501.22644 581.882568 502.607727 581.000732 506.301819 C 570.09198 503.601379 559.243042 500.91571 547.971313 498.166382 Z"/>
    <path id="path12" fill="#0e3d83" stroke="none" d="M 181.264618 71.306885 C 176.315277 74.909424 171.664856 78.316833 166.449127 82.138428 C 162.859131 74.649292 163.115387 67.407043 164.180298 60.291504 C 167.172363 40.298401 191.811218 25.590332 206.008392 24.845276 C 213.501831 24.452026 225.29834 32.342773 228.497955 39.327393 C 230.267426 43.190186 227.545044 43.955811 225.161774 45.074402 C 209.760956 52.302795 195.35791 61.196289 181.264618 71.306885 Z"/>
    <path id="path13" fill="#fff4d0" stroke="none" d="M 281.492798 403.616089 C 283.385284 374.241852 298.519928 338.970184 312.705658 328.755646 C 314.174133 332.172791 312.582214 335.392181 312.154022 338.480499 C 310.299866 351.85318 309.271271 365.238892 309.206726 378.757813 C 309.154114 389.784424 304.598938 399.837769 300.454956 409.810974 C 297.265228 417.487549 293.365723 424.872314 289.689819 432.341553 C 288.867798 434.011902 288.362305 436.4021 285.502991 435.590942 C 282.899292 434.852356 280.854828 433.518005 280.837067 430.505371 C 280.785095 421.688904 280.068085 412.854736 281.492798 403.616089 Z"/>
    <path id="path14" fill="#ff8c01" stroke="none" d="M 19.03064 139.008423 C 17.268478 138.201294 15.490341 137.387207 13.701431 136.568115 C 17.236465 130.08551 23.967377 128.075439 30.701859 131.688416 C 39.226196 136.261597 47.053513 141.925537 54.680939 147.852173 C 87.924469 173.683044 117.496338 203.38562 145.693817 234.507385 C 153.622925 243.258789 161.129486 252.398438 168.659241 261.501099 C 169.909271 263.012207 173.123535 264.906128 170.277222 267.241699 C 167.549652 269.479828 165.53476 266.61377 164.170013 264.792664 C 155.146332 252.751343 144.481873 242.226196 133.89856 231.628174 C 105.640457 203.330811 76.14772 176.414429 43.953491 152.615295 C 36.516068 147.11731 29.169281 141.151306 19.370193 139.014343 C 18.98912 138.979248 19.014648 139.001465 19.03064 139.008423 Z"/>
    <path id="path15" fill="#ff8c01" stroke="none" d="M 410.906616 457.2901 C 405.59906 456.99646 401.772034 454.804016 398.198242 451.461365 C 388.285767 442.190125 378.999695 432.487427 373.236725 419.959839 C 368.45816 409.572327 367.010529 398.966309 371.237183 388.014587 C 371.716034 386.773804 372.236389 385.544189 372.825775 384.353088 C 373.106659 383.785461 373.59494 383.320374 373.960846 382.845703 C 375.675812 382.92688 375.883545 384.256104 376.159973 385.264954 C 383.702576 412.792786 401.914185 431.718506 425.440735 446.310425 C 428.265076 448.062134 429.759766 449.847778 429.358276 453.477966 C 428.4823 461.399048 427.602112 462.034119 420.035339 459.381531 C 417.236145 458.40033 414.236023 457.992493 410.906616 457.2901 Z"/>
    <path id="path16" fill="#0e3d83" stroke="none" d="M 496.10022 442.605225 C 500.635071 443.492798 504.536377 444.868469 507.99353 447.298279 C 510.485291 449.049561 511.31488 451.255981 509.954834 454.216797 C 508.223328 457.986267 507.587646 462.795959 504.827332 465.417419 C 501.520203 468.558105 497.635498 464.05481 493.917419 463.295288 C 485.453369 461.566223 477.810059 464.225708 470.040588 466.652344 C 464.661926 468.332275 459.541565 470.940735 453.806824 471.34668 C 449.578308 471.645996 442.601868 466.568359 441.134827 462.247559 C 440.30542 459.804749 443.84314 453.260742 446.961548 451.030579 C 461.853088 440.380737 478.529175 440.139587 496.10022 442.605225 Z"/>
    <path id="path17" fill="#79830c" stroke="none" d="M 339.986298 253.645874 C 336.623413 267.338562 333.435974 280.640625 325.835144 292.739258 C 323.149902 290.161224 323.238312 287.277985 322.189911 284.904968 C 319.504089 278.825684 315.556488 273.783264 310.506287 269.564972 C 308.701508 268.057495 306.985077 266.50943 305.838654 264.433533 C 305.0289 262.967285 304.762421 261.469849 306.674835 260.702637 C 318.917389 255.791382 321.555634 244.5177 324.587921 233.578613 C 326.042816 228.329956 327.074402 222.963989 328.292175 217.675049 C 331.213928 216.929565 332.465271 218.965942 333.720367 220.571716 C 339.996704 228.601807 341.967499 237.821777 340.901276 247.807434 C 340.707397 249.623169 340.370148 251.423645 339.986298 253.645874 Z"/>
    <path id="path18" fill="#0e3d83" stroke="none" d="M 384.459961 483.578125 C 385.850952 486.081055 387.046082 488.273621 388.289063 490.438599 C 391.16803 495.452942 392.060242 502.299438 400.286072 502.083801 C 395.706726 508.998352 392.512817 508.974304 389.117249 502.972351 C 379.052795 485.182434 365.050842 473.382263 343.482605 473.137146 C 336.574677 473.058594 331.221527 470.688477 328.98584 463.406311 C 328.318024 461.231201 326.942017 459.198608 325.58017 457.326355 C 322.262085 452.764648 324.999359 448.770447 326.558746 444.673157 C 327.083099 443.29541 328.363556 443.293701 329.52655 443.808411 C 342.112457 449.379089 355.605286 453.035461 366.648834 461.848022 C 374.06485 467.765991 380.001892 474.805115 384.459961 483.578125 Z"/>
    <path id="path19" fill="#fff4d0" stroke="none" d="M 190.797089 315.180969 C 181.792633 303.781891 182.432007 300.747528 195.062073 294.361572 C 202.646454 290.526794 210.28479 286.821899 216.194397 280.433685 C 218.414246 278.034058 220.714691 278.467041 222.434143 281.018829 C 225.499237 285.567657 228.48291 290.179474 231.289124 294.890961 C 232.604462 297.099396 232.922028 299.644592 231.502838 302.037445 C 226.046173 311.237854 218.509613 317.930389 208.227997 321.34491 C 200.966248 323.756561 195.656647 320.650208 190.797089 315.180969 Z"/>
    <path id="path20" fill="#ff8c01" stroke="none" d="M 367.859375 232.320068 C 355.844391 230.77417 345.976715 225.611755 337.082275 218.225037 C 332.115601 214.10022 328.944275 209.281982 328.551117 202.588623 C 327.859253 190.809448 324.445618 179.772034 318.809113 169.374451 C 316.950958 165.946777 315.049652 162.390015 315.796021 157.76825 C 336.3414 184.009399 356.43045 210.59668 381.621643 233.910889 C 376.394653 234.619873 372.414307 232.746948 367.859375 232.320068 Z"/>
    <path id="path21" fill="#79830c" stroke="none" d="M 282.000366 440.477661 C 292.161041 444.72644 295.744934 453.91571 300.135773 462.40332 C 300.75119 463.592957 299.958282 465.008911 299.385773 466.215393 C 296.147919 473.037842 291.820587 479.089417 286.424683 484.36969 C 283.770721 486.966736 281.584045 486.919617 279.937683 483.243713 C 274.333099 470.730103 267.565826 459.083496 257.318085 449.579346 C 252.554291 445.161194 253.961365 441.779663 260.317688 440.531006 C 267.386597 439.142395 274.495026 439.201904 282.000366 440.477661 Z"/>
    <path id="path22" fill="#458adc" stroke="none" d="M 206.585205 225.400391 C 211.422729 232.969238 218.432831 237.415283 225.681976 241.568054 C 227.250702 242.466675 229.378479 242.96106 229.639984 245.03186 C 230.54422 252.192383 232.027435 259.388977 229.559235 267.358551 C 220.816498 263.773926 213.50174 268.225159 205.913605 270.838043 C 202.75058 271.927216 200.480621 271.771851 200.02124 268.152954 C 197.961853 251.928345 197.575684 235.713867 201.01416 219.592773 C 201.075867 219.303345 201.381348 219.065979 201.785156 218.515015 C 204.565155 219.848206 204.659882 223.095947 206.585205 225.400391 Z"/>
    <path id="path23" fill="#ff8c01" stroke="none" d="M 206.832947 90.144897 C 201.601654 90.105286 196.821442 90.730713 191.73172 89.890137 C 192.032532 89.019714 192.0755 88.296204 192.455719 87.882996 C 201.631256 77.911621 210.844604 67.995361 223.25174 61.812073 C 226.052032 60.416504 228.620087 58.554932 231.822998 56.582764 C 236.162964 63.419434 240.523682 69.961792 242.121216 77.887878 C 242.654816 80.5354 241.046936 82.286133 238.97049 83.615479 C 233.798279 86.926758 228.566162 90.146606 223.445374 93.535095 C 220.997833 95.154663 219.026825 95.30835 216.969421 92.898926 C 214.417389 89.910339 210.857422 89.91333 206.832947 90.144897 Z"/>
    <path id="path24" fill="#fc8ea0" stroke="none" d="M 290.17511 178.712463 C 295.860992 183.165039 298.094269 189.290405 300.256134 195.432373 C 303.444733 204.491455 304.975922 214.11853 310.059723 222.675293 C 309.185425 222.935913 308.63205 223.310425 308.311401 223.166504 C 288.343231 214.203491 273.974762 200.541138 270.57135 177.80896 C 269.85788 173.043579 270.750977 172.229736 275.588562 172.934326 C 280.768158 173.68866 285.565979 175.482788 290.17511 178.712463 Z"/>
    <path id="path25" fill="#79830c" stroke="none" d="M 383.787292 474.145874 C 380.110657 468.826904 380.229309 468.59198 385.714722 466.153564 C 397.879517 460.746094 410.026672 460.132019 422.378174 465.647095 C 426.317383 467.406006 427.979187 469.947754 427.299316 474.199524 C 426.305847 480.411926 424.427429 486.309875 422.346008 491.858459 C 419.404541 491.914917 418.184509 490.37561 416.703186 489.378601 C 410.954529 485.509583 404.706177 482.206726 397.79126 482.4776 C 390.995483 482.743835 386.816833 480.176453 383.787292 474.145874 Z"/>
    <path id="path26" fill="#0e3d83" stroke="none" d="M 321.267761 215.864014 C 320.231049 219.932739 320.428436 223.887451 318.415192 227.304443 C 306.014984 218.396912 302.903656 184.26532 311.581665 169.611511 C 320.784119 183.952454 323.551147 199.122925 321.267761 215.864014 Z"/>
    <path id="path27" fill="#458adc" stroke="none" d="M 312.77356 431.736328 C 314.307159 441.732666 311.580719 449.802307 303.870239 456.893005 C 299.695282 450.911316 295.723846 445.29071 291.852417 439.602051 C 291.249329 438.715881 291.837036 437.667419 292.401031 436.80896 C 298.478058 427.559509 302.509369 417.328979 306.62851 407.140991 C 306.953583 406.336914 307.327087 405.627441 309.069733 405.833557 C 306.811005 414.777344 309.530579 423.082336 312.77356 431.736328 Z"/>
    <path id="path28" fill="#fff4d0" stroke="none" d="M 390.168091 458.12323 C 377.931213 448.17804 367.272034 437.233337 358.585144 424.478027 C 352.201569 415.104797 352.504089 412.837036 361.365997 403.590881 C 368.040955 424.872437 380.84668 441.781555 396.230896 456.81842 C 394.210449 459.198181 392.486389 459.536926 390.168091 458.12323 Z"/>
    <path id="path29" fill="#79830c" stroke="none" d="M 224.940002 164.478027 C 224.191315 166.36438 224.654877 168.245239 222.749268 169.909668 C 211.888 158.31604 212.70639 141.938721 204.632568 128.620239 C 208.858154 128.352295 211.398499 130.110474 214.083252 131.159546 C 217.354614 132.437744 220.627899 133.89801 224.163269 133.676331 C 228.3638 133.412964 228.820465 135.474182 228.335938 138.877319 C 227.142151 147.261719 226.1185 155.67041 224.940002 164.478027 Z"/>
    <path id="path30" fill="#fff4d0" stroke="none" d="M 236.379395 293.61203 C 232.523499 288.355438 229.099579 283.211914 225.235107 278.423981 C 221.265686 273.506073 218.25943 273.440887 213.389069 277.488129 C 210.956451 279.509552 208.607971 281.637634 206.110992 283.575134 C 199.247437 288.900879 193.185211 286.780762 190.206482 277.962128 C 195.08902 277.086548 197.580414 283.53186 203.165405 282.156311 C 200.02713 278.460968 194.385681 279.503815 192.176056 274.840454 C 195.057587 272.392853 197.826019 270.575348 201.877777 272.47934 C 205.829834 274.336456 209.7146 272.797546 213.505554 271.546906 C 225.366699 267.63382 229.932129 269.251587 236.544952 280.005737 C 238.650269 283.429565 240.467957 287.079102 240.077667 291.252411 C 239.915558 292.985748 239.970337 295.934204 236.379395 293.61203 Z"/>
    <path id="path31" fill="#ff8c01" stroke="none" d="M 306.317078 479.400635 C 300.878906 485.217468 297.649139 492.749512 289.818939 497.710938 C 290.716339 492.267517 294.833618 490.241638 296.06369 486.251526 C 292.722412 488.054138 290.544434 491.923279 284.732849 492.00238 C 293.208191 484.127869 297.217896 474.411499 304.382629 467.107239 C 308.802307 462.601501 314.529053 464.655518 315.940399 470.858582 C 316.566254 473.609253 315.956421 476.254639 314.795624 478.615906 C 311.632202 485.05072 307.565002 490.926941 302.776825 496.271057 C 301.701691 497.470886 300.434998 498.70343 298.197968 497.985596 C 297.749725 495.85083 299.296967 494.387085 300.281433 492.820435 C 302.936829 488.594604 305.569458 484.367249 307.35849 479.679504 C 307.416565 479.527344 307.502716 479.33374 307.455872 479.202271 C 307.149261 478.341675 306.806519 478.969788 306.317078 479.400635 Z"/>
    <path id="path32" fill="#458adc" stroke="none" d="M 307.499146 274.503967 C 315.708374 282.558502 320.357452 291.798157 320.642212 303.760406 C 317.913269 302.591095 317.296417 300.615204 316.440796 298.961975 C 312.370789 291.098083 307.024963 284.685516 298.756531 280.721985 C 294.265594 278.569183 289.545349 276.052856 287.4646 270.616028 C 290.330811 268.223938 293.727478 267.269318 296.74762 265.64563 C 298.659607 264.617737 299.846741 265.89209 300.982697 267.178711 C 303.067749 269.540344 305.158142 271.897278 307.499146 274.503967 Z"/>
    <path id="path33" fill="#ff8c01" stroke="none" d="M 177.955383 311.367432 C 170.821533 311.693054 166.050415 308.890961 163.00354 302.873199 C 160.841248 298.60257 158.06662 294.624817 156.696106 288.752502 C 165.30011 291.928986 172.935638 296.209198 183.049408 294.581757 C 177.844543 301.092499 183.332794 305.433014 184.518829 310.267242 C 182.388855 311.957581 180.320282 311.162048 177.955383 311.367432 Z"/>
    <path id="path34" fill="#ff8c01" stroke="none" d="M 431.952759 489.19574 C 432.139404 487.560669 432.977539 486.343689 432.251953 484.622925 C 430.547302 488.31366 430.856873 492.664856 427.756226 495.347473 C 426.312805 494.931335 426.514648 493.97113 426.684814 493.233398 C 428.185547 486.730652 428.752441 480.135742 428.861023 473.478394 C 428.924255 469.597168 430.41156 466.453491 434.649292 466.014099 C 438.88092 465.575256 441.833435 467.897644 442.594116 471.975647 C 444.123352 480.173523 440.780457 487.188904 436.914612 495.199585 C 435.019104 491.264221 437.706543 488.802063 436.542969 486.230408 C 434.897339 489.46936 434.885193 493.672241 431.332825 496.514648 C 430.047607 493.760742 431.975159 491.723999 431.952759 489.19574 Z"/>
    <path id="path35" fill="#0e3d83" stroke="none" d="M 200.640625 104.049988 C 198.550262 104.192383 196.891205 104.268066 195.232819 104.355774 C 185.692932 104.860291 184.242615 103.633057 182.295288 92.421265 C 193.079773 95.255005 204.412903 90.898438 215.219299 97.127075 C 211.078644 101.995483 206.039032 102.917236 200.640625 104.049988 Z"/>
    <path id="path36" fill="#0e3d83" stroke="none" d="M 187.125488 165.044617 C 188.319214 168.240662 186.551758 171.119507 186.280823 174.201233 C 185.470703 183.414856 188.936981 191.077759 194.305969 198.181641 C 198.377136 203.568298 199.920288 209.303894 196.720947 215.541504 C 194.800934 215.973633 194.294342 214.77594 193.771454 213.796265 C 189.699524 206.167236 185.704529 198.484863 183.034912 190.232849 C 180.136078 181.272278 182.038422 172.923096 187.125488 165.044617 Z"/>
    <path id="path37" fill="#ff8c01" stroke="none" d="M 189.566895 106.22406 C 197.965088 107.525024 205.742859 106.819458 213.295441 103.618408 C 217.838928 101.692749 220.031677 103.240906 221.896332 109.651245 C 223.30127 114.481445 219.288208 114.268616 216.609009 114.637451 C 207.525635 115.888 198.831482 114.108215 190.579773 110.318115 C 187.521027 108.913208 187.592926 108.463013 189.566895 106.22406 Z"/>
    <path id="path38" fill="#ff8c01" stroke="none" d="M 241.890503 96.564514 C 242.209839 102.071289 238.804352 104.317749 234.915436 106.177307 C 232.115631 107.516113 229.811432 109.880615 226.407715 110.365662 C 223.996521 107.605713 223.692505 104.016479 222.504486 100.813538 C 221.974762 99.385437 222.471771 98.201172 223.83078 97.45752 C 229.599365 94.300842 235.811554 92.066284 241.352875 88.207703 C 242.888977 91.269409 242.021118 93.725403 241.890503 96.564514 Z"/>
    <path id="path39" fill="#fc8ea0" stroke="none" d="M 243.295837 147.410034 C 239.082275 151.322327 235.124023 155.00061 230.884216 158.940552 C 228.892365 156.087708 230.408051 153.722839 230.642334 151.441406 C 231.199982 146.011353 231.914642 140.597534 232.52356 135.172485 C 232.741028 133.234863 233.26651 131.470276 235.412262 131.038269 C 237.500183 130.617859 238.190002 132.402954 239.063293 133.789917 C 240.740051 136.453003 242.248749 139.245605 244.154907 141.733337 C 245.84668 143.941223 245.650818 145.570801 243.295837 147.410034 Z"/>
    <path id="path40" fill="#458adc" stroke="none" d="M 196.804932 159.894592 C 198.328369 153.013306 200.622345 146.926636 205.815491 140.965271 C 209.14447 149.857544 211.299988 157.961914 213.583801 167.436646 C 207.215881 164.717773 200.821259 165.655334 196.804932 159.894592 Z"/>
    <path id="path41" fill="#0e3d83" stroke="none" d="M 218.53717 53.414551 C 221.923218 52.129517 224.828247 50.465515 228.427032 51.15332 C 215.874329 62.332031 201.613556 70.316528 185.171173 74.440308 C 195.220612 65.965149 206.149292 58.902832 218.53717 53.414551 Z"/>
    <path id="path42" fill="#0e3d83" stroke="none" d="M 213.721558 121.325073 C 217.687347 122.260986 221.271637 122.82251 224.953186 122.757507 C 227.057495 122.720337 229.697784 122.355225 229.912109 125.446045 C 230.113037 128.343018 228.805054 130.668213 225.726379 131.373779 C 220.177155 132.645386 215.048157 131.027954 210.714294 127.854004 C 206.368652 124.671326 202.456818 120.873962 197.922028 117.623962 C 203.488342 117.322144 208.151367 120.373901 213.721558 121.325073 Z"/>
    <path id="path43" fill="#0e3d83" stroke="none" d="M 182.433929 103.612793 C 183.171265 105.994446 184.011993 107.977234 183.053253 111.549072 C 175.688934 103.446228 171.482574 94.665161 167.019501 86.286011 C 169.42749 83.290161 172.342468 83.640198 174.823029 83.011841 C 177.709076 82.280762 179.439331 83.713013 179.173035 86.714661 C 178.655396 92.549744 180.783203 97.824158 182.433929 103.612793 Z"/>
    <path id="path44" fill="#ff8c01" stroke="none" d="M 184.984741 284.960541 C 185.46875 286.537933 186.246552 288.093018 186.368408 289.697876 C 186.55481 292.15329 184.765717 294.161926 182.783539 292.611572 C 178.671265 289.395264 173.799652 290.870056 169.49173 289.411865 C 168.405334 289.044067 167.204651 289.016754 166.114105 288.657867 C 163.348602 287.747833 159.28476 287.429779 159.413208 283.877289 C 159.554413 279.971741 163.074524 278.040314 166.723816 277.013184 C 167.027161 277.534332 167.362701 277.838867 167.323059 278.082336 C 166.285431 284.451904 168.90564 286.450256 176.344025 284.417999 C 179.198792 283.638031 181.759552 282.979584 184.682739 284.897949 C 185.007568 284.991974 184.984772 284.960541 184.984741 284.960541 Z"/>
    <path id="path45" fill="#ff8c01" stroke="none" d="M 243.617798 269.747101 C 244.162567 270.125183 244.404449 270.3927 244.844788 270.843964 C 246.565674 273.787231 248.211426 276.487396 249.575867 279.322968 C 250.941315 282.160583 250.09848 284.572205 247.374573 286.125061 C 244.16568 287.954468 243.340607 285.069092 242.210114 283.20639 C 239.702454 279.074554 236.547211 275.459015 233.132446 271.800079 C 236.249939 268.785675 239.064453 265.912109 243.617798 269.747101 Z"/>
    <path id="path46" fill="#458adc" stroke="none" d="M 250.7276 139.813049 C 245.556671 140.67627 238.92392 134.194092 239.465393 129.290405 C 239.757416 126.646179 242.70874 125.44812 245.056 127.296997 C 248.194733 129.769287 251.353638 132.117371 255.378174 133.156067 C 255.410614 136.563232 252.787201 137.803711 250.7276 139.813049 Z"/>
    <path id="path47" fill="#0e3d83" stroke="none" d="M 189.597168 78.443542 C 193.249207 77.474609 196.526001 76.635742 199.802795 75.796997 C 196.929138 82.927002 191.726868 86.776489 185.080963 88.876953 C 183.446014 89.393677 182.421539 88.541321 182.266907 87.012634 C 182.043732 84.806091 181.07016 82.222717 183.70932 80.769043 C 185.428345 79.822144 187.376434 79.291077 189.597168 78.443542 Z"/>
    <path id="path48" fill="#0e3d83" stroke="none" d="M 237.741272 253.145508 C 237.926147 251.127441 237.285706 249.421143 238.561005 247.696716 C 242.520477 248.820618 244.856995 252.219543 247.772522 254.700195 C 249.497223 256.167725 248.008698 257.863586 246.646088 258.798218 C 243.452576 260.988647 239.965729 262.750732 236.824829 266.518585 C 235.906006 261.379761 238.36969 257.56189 237.741272 253.145508 Z"/>
    <path id="path49" fill="#fff4d0" stroke="none" d="M 185.023193 285.003418 C 181.610687 281.102203 175.607452 280.241516 173.284729 274.914368 C 172.649017 273.45639 170.812836 272.412964 172.635864 270.71051 C 174.174591 269.273499 175.377747 270.431122 176.521057 271.404449 C 181.593201 275.722351 186.318756 280.372528 190.224457 285.803131 C 191.574615 287.680389 192.183014 289.532257 190.149384 291.828308 C 187.892914 289.903931 187.838409 286.765808 185.27002 285.143677 C 184.984772 284.960541 185.007568 284.991974 185.023193 285.003418 Z"/>
    <path id="path50" fill="#fff4d0" stroke="none" d="M 441.795349 571.685852 C 444.136902 571.815674 445.976318 570.168518 449.069946 571.909485 C 440.021973 576.414185 431.442078 579.897522 422.151306 581.719604 C 426.827515 575.028381 433.950073 573.071899 441.795349 571.685852 Z"/>
    <path id="path51" fill="#0e3d83" stroke="none" d="M 320.048889 462.402466 C 320.81189 461.108887 321.126831 459.909119 322.791107 459.310181 C 325.535492 463.32489 328.339691 467.427063 331.380463 471.875366 C 327.498718 473.540527 323.853607 473.438965 321.588776 471.26178 C 319.598022 469.348083 317.757019 466.099426 320.048889 462.402466 Z"/>
    <path id="path52" fill="#ff8c01" stroke="none" d="M 187.191223 275.944336 C 182.434631 272.235718 183.363373 265.148499 188.5289 262.622437 C 190.023682 261.891418 190.959503 262.237488 191.662018 263.75531 C 193.443329 267.603699 191.40976 273.792847 187.191223 275.944336 Z"/>
    <path id="path53" fill="#ff8c01" stroke="none" d="M 239.557739 114.085449 C 238.040344 117.397583 235.608612 118.857239 232.429565 119.493774 C 230.727936 117.840942 229.832581 115.781738 228.903076 113.507202 C 232.047699 111.046143 235.096039 108.670593 239.030426 107.888489 C 240.723755 109.873413 240.104248 111.803528 239.557739 114.085449 Z"/>
    <path id="path54" fill="#458adc" stroke="none" d="M 509.695313 460.92041 C 511.539063 456.502808 512.973755 452.083557 519.998596 452.79303 C 517.016907 457.973022 514.36145 462.586182 511.597717 467.387451 C 508.315491 465.756104 509.03064 463.504089 509.695313 460.92041 Z"/>
    <path id="path55" fill="#0e3d83" stroke="none" d="M 255.089844 123.690613 C 258.675232 123.92627 261.852875 123.234863 264.952087 124.182007 C 263.122833 130.261536 256.08252 130.725769 246.881989 125.30481 C 249.110138 122.652832 252.067261 124.01355 255.089844 123.690613 Z"/>
    <path id="path56" fill="#458adc" stroke="none" d="M 438.427368 449.487549 C 437.414978 452.672424 436.410461 455.46344 435.618347 458.313416 C 434.792664 461.284851 433.093933 461.857056 429.670776 460.261047 C 431.90564 455.100403 432.371582 449.119995 438.089844 445.851807 C 439.293335 447.252625 438.78949 448.187317 438.427368 449.487549 Z"/>
    <path id="path57" fill="#0e3d83" stroke="none" d="M 259.919861 239.016846 C 257.928497 242.284424 256.09494 245.24939 254.162964 248.148743 C 252.902985 250.039673 251.327759 251.133545 249.328033 249.034668 C 247.559875 247.178894 248.456543 245.813354 250.251099 244.606689 C 252.766846 242.915039 254.577454 240.539795 256.497894 238.235168 C 257.503082 237.028931 259.347626 234.853027 259.919861 239.016846 Z"/>
    <path id="path58" fill="#0e3d83" stroke="none" d="M 247.525177 111.289673 C 247.28598 113.355164 247.120209 115.014648 246.002045 116.369202 C 245.309418 117.208252 244.361511 117.472778 243.329285 117.35498 C 242.394073 117.24823 241.645386 116.596497 241.832397 115.717041 C 242.705658 111.610474 242.974518 107.304016 245.322693 103.643494 C 245.755737 102.968384 246.685364 102.723145 247.739227 103.229553 C 248.599548 105.696716 247.960052 108.288574 247.525177 111.289673 Z"/>
    <path id="path59" fill="#458adc" stroke="none" d="M 311.08606 460.028748 C 313.369293 456.309265 314.401428 452.221252 317.159393 449.06073 C 319.729248 451.996216 319.58786 458.191711 316.810822 461.191711 C 314.753326 463.414429 312.727051 462.473328 311.08606 460.028748 Z"/>
    <path id="path60" fill="#fff4d0" stroke="none" d="M 609.876953 503.557983 C 610.473145 507.786499 612.118835 511.543091 610.964478 515.585205 C 606.213501 512.491455 604.696472 505.793457 607.283691 499.538818 C 609.592773 499.743286 609.02771 501.906006 609.876953 503.557983 Z"/>
    <path id="path61" fill="#ff8c01" stroke="none" d="M 225.750946 118.184753 C 226.751434 120.050537 226.341125 121.335022 224.516296 121.006348 C 221.385132 120.442444 217.977936 120.747498 213.906311 118.043762 C 218.679382 118.312805 221.868835 114.472534 225.750946 118.184753 Z"/>
    <path id="path62" fill="#0e3d83" stroke="none" d="M 245.84375 97.05481 C 245.7052 94.784729 245.385132 92.838501 246.326111 90.891724 C 249.209076 91.032959 250.235748 92.828613 249.798431 95.102661 C 249.47522 96.783203 248.717072 99.191406 245.84375 97.05481 Z"/>
    <path id="path63" fill="#0e3d83" stroke="none" d="M 239.664063 120.632324 C 240.908966 122.143677 241.503876 123.420532 239.797333 124.580688 C 239.056122 125.084595 238.237793 125.137817 237.673248 124.316956 C 236.840942 123.106812 235.868927 121.677185 236.547852 120.296814 C 237.201416 118.96814 238.466675 119.600159 239.664063 120.632324 Z"/>
</svg>
